/* XPM */
static char *collectibles[] = {
/* columns rows colors chars-per-pixel */
"32 32 109 2 ",
"   c #211D17",
".  c #211E18",
"X  c #25221B",
"o  c #29241D",
"O  c #2E291F",
"+  c #352C1E",
"@  c #392E1E",
"#  c #342D21",
"$  c #382F20",
"%  c #363026",
"&  c #3D3426",
"*  c #373229",
"=  c #393329",
"-  c #3F392F",
";  c #46361C",
":  c #523D1A",
">  c #403626",
",  c #483B25",
"<  c #413B2F",
"1  c #503F24",
"2  c #453D32",
"3  c #5F4517",
"4  c #694718",
"5  c #6D4A1A",
"6  c #744F1D",
"7  c #75511D",
"8  c #7C541E",
"9  c #4D412E",
"0  c #554324",
"q  c #5D4626",
"w  c #50422E",
"e  c #4E4230",
"r  c #514431",
"t  c #634722",
"y  c #654A24",
"u  c #6C4D24",
"i  c #674F2D",
"p  c #6E542E",
"a  c #735424",
"s  c #7A5626",
"d  c #765922",
"f  c #7B5B23",
"g  c #70542B",
"h  c #79572A",
"j  c #76582E",
"k  c #7A5B2E",
"l  c #614E33",
"z  c #685131",
"x  c #795F37",
"c  c #6F6961",
"v  c #6E6D6C",
"b  c #706E6C",
"n  c #77736E",
"m  c #7D7B76",
"M  c #7C7C7C",
"N  c #855719",
"B  c #865D1E",
"V  c #8C5D1B",
"C  c #86641F",
"Z  c #8E671E",
"A  c #8F691D",
"S  c #926A1E",
"D  c #A46D1F",
"F  c #855C25",
"G  c #895E26",
"H  c #845E29",
"J  c #856223",
"K  c #8B6225",
"L  c #8E6820",
"P  c #86622B",
"I  c #8A652C",
"U  c #926426",
"Y  c #996724",
"T  c #956C22",
"R  c #9D6C25",
"E  c #936729",
"W  c #956B2C",
"Q  c #9A6D2B",
"!  c #9F7025",
"~  c #9E712D",
"^  c #846537",
"/  c #8E6A34",
"(  c #916B32",
")  c #A36D22",
"_  c #A86F21",
"`  c #A37126",
"'  c #A87022",
"]  c #A5752A",
"[  c #A8772B",
"{  c #AA782C",
"}  c #878077",
"|  c #84817C",
" . c #898580",
".. c #8D8B87",
"X. c #8B8B8C",
"o. c #9F9587",
"O. c #929292",
"+. c #9D9892",
"@. c #9D9C9C",
"#. c #A6A29B",
"$. c #A4A4A4",
"%. c #A7A8A8",
"&. c #BEB4A6",
"*. c #B6B2AD",
"=. c #BBB7B1",
"-. c #BBBBBC",
";. c #C1BCB6",
":. c #C4BFB8",
">. c #C8C8C9",
/* pixels */
"2 2 - - - 2 - - - < 2 2 2 2 2 2 < < 2 2 9 2 2 e - e 9 2 2 - * % ",
"2 e e e 9 9 9 9 9 9 r r e e e 9 9 9 9 9 r 9 e e e e r e r e * O ",
"2 e ( ~ Q T T Y R Q T E C C C C C C J C J C R W J J Q ! ~ I % o ",
"2 r ] { ` ' _ D ` ` ] ) S S S A S S S S S T ` ` L T ` ] { ~ $ o ",
"2 r ~ [ T S S S S S S S ` ! V B K L ] { ] { ] ) ) _ { { { ~ @ o ",
"2 r ~ [ S S S S S S A S R R ( / / ( ] { { [ ] ) ) _ { { { ~ @ o ",
"2 r Y ) ) D D D D D D D V W &.;.#.o.I V ) ) ) ) ) ) ) ) D S @ o ",
"2 w U ) Y Y D D D D D ) N / :.>.%.+.G N Y Y ) R ) ) ) ) D S @ o ",
"2 e f J F C F J C J W W f ^ =.-.O.| q 3 B G U U U E E E E G $ o ",
"2 e a d d d 8 d d d P P u x *.-.X.m 3 : a s F G H H H F H h # o ",
"< < = & > & & & > & > & + 2 @.$.M v = + & & > > & & > & > $ . . ",
"< - & = & & & > & & & & + 2 O.@.M v % O & & = > & = % & & & . . ",
"< 9 p p p p p z p p g p q l ..O.M v , ; u g p p p g p z p z # . ",
"2 e j x k k j k k k j x y z }  .n c , : g h h k x k x k k p # o ",
"< 9 G K G K G G I K G G 6 6 y y t t 5 a G G G G G G G G F s $ o ",
"< w K Y U U E U E Y U K s 6 4 4 4 5 8 8 U U U U U Y U U F s # o ",
"2 r ~ { [ ] [ [ [ [ ' S A A ] ` ] ` ! R ` ` ` ` [ [ [ ] W P % o ",
"2 r ! { [ { [ ] [ { ' D S S [ { { ] ] ` ` ` ` ` { { { [ W P + o ",
"2 9 C S T S S T S T [ { ` ` ` ` S S S S S S D _ { [ T L J d + o ",
"- 9 J S S A S S S S [ { ` ` ` ` S A A A S T D ' { [ S A f 8 O o ",
"2 e Q ` ` ` ` ` { [ { [ T S S S S A S S ! ` ` ` ] ] ` ` W f % o ",
"2 e R ` ` ` ` ` { [ [ [ S S S S S S S S ` ' ` ` ) ` ` ) T P + o ",
"2 w Y R ) _ _ ) ) ) ) ) S D D D D D D D D D ' _ ) ) ) Y K F + o ",
"< e Y ) _ _ _ ) ` ) ) ) ` ` D ! D D D D D D D D ) ) ) ) U F + o ",
"2 r ~ { { { { { { [ S S [ [ S S S S S S S S S S ` ` ) ) W P @ o ",
"2 r ! { { { { { { { T T [ [ S S S S S S S S A S R ` D ) W P @ o ",
"2 r K S ' ' { { { { [ [ { { S S ] [ ! ! ` ! S A L S S A J d + o ",
"2 r C S ) ) ] ] { ~ [ { { ~ S S ] [ ] ] ! ! A L L T A L J d + o ",
"9 e I W J J J J f L W ~ ~ W J f W Q Q W J J E E W W W W P k $ o ",
"- e P P d d d d d d P P P P f 8 P I P P d 7 f P P P P P k g + o ",
"O O + + + $ + + + + + $ % $ + + + $ % + + + + % $ + + $ + O X   ",
"o o o o o o o o o o o X O O o o o o o o o o o o X o o o o o .   "
};
