/* XPM */
static char *exit[] = {
/* columns rows colors chars-per-pixel */
"32 32 226 2 ",
"   c #664D28",
".  c #694F2A",
"X  c #7D5C34",
"o  c #7F5D36",
"O  c #795936",
"+  c #745634",
"@  c #5D4626",
"#  c #5E4726",
"$  c #7B5B34",
"%  c #805E36",
"&  c #7B5A33",
"*  c #5A3E22",
"=  c #7E5D36",
"-  c #6E5433",
";  c #695130",
":  c #5C4626",
">  c #7F5E36",
",  c #7C5B34",
"<  c #755634",
"1  c #775836",
"2  c #6C5433",
"3  c #6A5231",
"4  c #674E29",
"5  c #795933",
"6  c #593E21",
"7  c #785832",
"8  c #6D5432",
"9  c #735533",
"0  c #785836",
"q  c #7B5A34",
"w  c #765735",
"e  c #6C5331",
"r  c #705633",
"t  c #6A5130",
"y  c #583D21",
"u  c #573C20",
"i  c #674C28",
"p  c #69502B",
"a  c #6B5331",
"s  c #5E4626",
"d  c #755735",
"f  c #684E2A",
"g  c #7D5C36",
"h  c #7A5936",
"j  c #5D4525",
"k  c #5E4625",
"l  c #6F5533",
"z  c #583E22",
"x  c #573D20",
"c  c #644B27",
"v  c #6B5231",
"b  c #5B4525",
"n  c #5C4525",
"m  c #6D5431",
"M  c #7D5C35",
"N  c #7A5933",
"B  c #5A3F22",
"V  c #593E22",
"C  c #755533",
"Z  c #775835",
"A  c #5B4424",
"S  c #654C27",
"D  c #695030",
"F  c #735433",
"G  c #7C5C35",
"H  c #604A29",
"J  c #614B2B",
"K  c #655032",
"L  c #685235",
"P  c #7B5E3B",
"I  c #795B39",
"U  c #5A3F23",
"Y  c #6E5234",
"T  c #725638",
"R  c #765A3C",
"E  c #735739",
"W  c #5D4727",
"Q  c #604A2A",
"!  c #634D2C",
"~  c #6A5437",
"^  c #685236",
"/  c #715537",
"(  c #6C5638",
")  c #745734",
"_  c #775A37",
"`  c #695437",
"'  c #3A3833",
"]  c #3C3935",
"[  c #42403C",
"{  c #494642",
"}  c #66635F",
"|  c #69635B",
" . c #5C472B",
".. c #574226",
"X. c #48423B",
"o. c #4A4643",
"O. c #66625F",
"+. c #68625B",
"@. c #5C482B",
"#. c #574326",
"$. c #464139",
"%. c #484541",
"&. c #64625E",
"*. c #67625B",
"=. c #5B472B",
"-. c #494643",
";. c #4A4743",
":. c #65625E",
">. c #63605D",
",. c #403D39",
"<. c #3A3733",
"1. c #3B3935",
"2. c #423F3B",
"3. c #64615E",
"4. c #474541",
"5. c #454039",
"6. c #614B2A",
"7. c #624D2C",
"8. c #695336",
"9. c #573D21",
"0. c #604929",
"q. c #684F2A",
"w. c #6B5230",
"e. c #654C28",
"r. c #6B5130",
"t. c #674D28",
"y. c #6A502A",
"u. c #6A5230",
"i. c #6A522F",
"p. c #583E21",
"a. c #684F2F",
"s. c #5B4425",
"d. c #68502F",
"f. c #7B5B33",
"g. c #664D29",
"h. c #5C4625",
"j. c #68512F",
"k. c #5A3E21",
"l. c #6A502B",
"z. c #6D5433",
"x. c #593D21",
"c. c #725433",
"v. c #5B4524",
"b. c #654D28",
"n. c #593D22",
"m. c #745433",
"M. c #685030",
"N. c #745533",
"B. c #6C5332",
"V. c #5D4526",
"C. c #694F2B",
"Z. c #644B28",
"A. c #765734",
"S. c #654D29",
"D. c #674E2A",
"F. c #775734",
"G. c #654B28",
"H. c #5B3F22",
"J. c #7E5D35",
"K. c #795A33",
"L. c #644C27",
"P. c #7C5C34",
"I. c #6C512B",
"U. c #7A5A36",
"Y. c #7E5C34",
"T. c #795932",
"R. c #815E36",
"E. c #6D5331",
"W. c #634C2B",
"Q. c #755835",
"!. c #795B38",
"~. c #7D5F3C",
"^. c #795C39",
"/. c #644F32",
"(. c #665133",
"). c #665030",
"_. c #644E2E",
"`. c #573C21",
"'. c #5E4727",
"]. c #785B39",
"[. c #563C20",
"{. c #45413C",
"}. c #4B4742",
"|. c #67635F",
" X c #69625B",
".X c #584027",
"XX c #533B23",
"oX c #46403A",
"OX c #484542",
"+X c #64615D",
"@X c #666059",
"#X c #573F27",
"$X c #533B22",
"%X c #48413A",
"&X c #584427",
"*X c #583F27",
"=X c #533A22",
"-X c #453F39",
";X c #4A4742",
":X c #66615A",
">X c #543C23",
",X c #68615B",
"<X c #67635E",
"1X c #65625D",
"2X c #765835",
"3X c #685336",
"4X c #5B4526",
"5X c #765936",
"6X c #685131",
"7X c #654F2E",
"8X c #785A38",
"9X c #775A3C",
"0X c #5A4424",
"qX c #654E2D",
"wX c #7A5D3A",
"eX c #644D2C",
"rX c #705533",
"tX c #7E5C35",
"yX c #674D29",
"uX c #6B502B",
"iX c #694F29",
"pX c #735532",
"aX c #755734",
"sX c #6E5533",
"dX c #735534",
"fX c white",
/* pixels */
"  . X o O + @ # $ % % & * * & = - ; : @ + O > , # @ < 1 2 3 4   ",
"  . X o O + @ # , % = 5 * 6 7 $ 8 ; : @ 9 0 = q # @ 9 w - e 4   ",
"  . X o O + @ # , = r t y u i p a ; : : 3 - 0 < s : 3 - d < f   ",
"  . $ g h < j k q g l t z x c 4 v ; b n 3 - d 9 j n v l w < f   ",
"  4 m r M N B V C O Z 9 j A S 4 v D z V F w - t z B 5 G l e 4   ",
"H J K L P I U V Y T R E W b Q ! ~ ^ z V Y / ( L z B ) _ ( ` J H ",
"' ] [ { } |  ...X.o.O.+.@.#.$.%.&.*.=...X.-.&.*.=.#.X.;.:.>.,.<.",
"' 1.2.%.3.*.@.#.$.4.3.*.=...$.%.&.*.@.#.$.4.&.*.=...5.4.&.>.,.<.",
"Q Q 6.7.~ 8.: b Q 7.~ ^ z 9.0.! ~ 8.: b Q 7.~ ^ z 9.0.7.~ ~ J H ",
"    4 q.m w.n A e.q.e t z 9.e.q.m w.n A e.q.m r.y u t.y.u.i.4   ",
"  4 u.m G 5 B p.a.e d 9 j s.d.8 G 5 B p.a.m G 5 * 6 7 f.. g.    ",
"  4 3 - = & * 9.t - 1 < @ h.j.8 G 5 k.9.t l G 5 6 * & M l.g.    ",
"  4 3 z.= & * x.c.1 0 < @ v.b.q.8 r.y x.F w l r.y * & = m u.4   ",
"  4 e l g N * n.m.0 1 9 @ v.S 4 3 M.z * N.1 B.a.9.* N g z.3 4   ",
"  f + 1 O C n.n.m.1 - 3 : v.S 4 v ; b V.+ w C.Z.u n.C 0 z.3 4   ",
"  f A.0 1 c.x.n.m.1 - 3 : b S.D.u.d.b V.< F.f c u n.m.1 - e 4   ",
"  f A.1 - t 9.n.m.0 1 9 @ h.j.u.D.G.9.B N G . c u n.m.0 1 + f   ",
"  f F.Z B.a.p.B C O 0 + V.b ; v 4 c u * & M l.Z.9.V F 1 0 A.f   ",
"  . , G l.e.A s q o O N.V z M.3 4 c u * & = 8 d.b n 3 - 1 A.f   ",
"  . X M l.e.b # , o 0 c.V z r.m 4 c x H.& = l 3 : h.j.e Z F.f   ",
"  . X J.8 d.n # , = l 3 b k K.$ . L.A s $ o 0 9 @ b e.l.G P..   ",
"  . X = r v : # K.G m d.b s , J.I.4 n # , > U.< V.A L.. $ $ .   ",
"  . X % J.K.# : e m f G.9.H.& % Y.T.# # , R.% N B x c 4 E.E.4   ",
"H W.Q.!.~.^.s s./.(.)._.`.V + !.~.^.'.@ Q.!.~.].* [.0.! ` ` J H ",
"' ] {.}.|. X.XXXoXOX+X@X#X$X%X;.|.| @.&XX.;.|.+.*X=X-X%.&.>.,.<.",
"' ] {.;X&.:X.X>X%X;.&.:X.X>X%X;X+X:X@.&XX.;.O.,X.XXX5.%.<X1X,.<.",
"H W.2X_ ( 3X4XV.Q._ ( 3X4X@ Q.5X6X7Xb # Q.8X9XE V.0XQ qXwXwXeXH ",
"  . Y.= l u.: # , o rXw.n s , tXy.e.v.# $ o h < s n yXuX$ $ iX  ",
"  . X o 0 9 @ # , % = 5 B B & = 8 d.h.s < h o q # @ pXaXsXe 4   ",
"  . X o O + @ # , % = 5 6 6 7 $ 8 ; : @ 9 0 = q # @ dXw - e 4   ",
"  . X o O + @ # , = r t y u i p a ; : : 3 - 0 < s : 3 - d < f   ",
"  . X o O + @ # , = - M.9.u c 4 v ; : : ; z.1 + @ : ; z.1 A.f   "
};
