/* XPM */
static char *floor[] = {
/* columns rows colors chars-per-pixel */
"32 32 222 2 ",
"   c #D7C185",
".  c #D5C084",
"X  c #CAB87B",
"o  c #D7C286",
"O  c #D7CA8C",
"+  c #D7CB8D",
"@  c #D8C386",
"#  c #D2BD83",
"$  c #B3A378",
"%  c #AE9F76",
"&  c #CBB97C",
"*  c #D4BF83",
"=  c #D5C185",
"-  c #D5C88A",
";  c #D5C88B",
":  c #D3C68A",
">  c #D2C68A",
",  c #D3C78A",
"<  c #D4C78A",
"1  c #D5C98B",
"2  c #D7C98B",
"3  c #D7C88B",
"4  c #D4C084",
"5  c #CFBA81",
"6  c #B3A477",
"7  c #AFA076",
"8  c #D6C084",
"9  c #CAB97C",
"0  c #C7B77C",
"q  c #B5A779",
"w  c #B4A579",
"e  c #BAAB78",
"r  c #BDAE78",
"t  c #C8B87C",
"y  c #CBBB7D",
"u  c #D6C185",
"i  c #CBBA7D",
"p  c #D4BF84",
"a  c #BFAE79",
"s  c #BBAA76",
"d  c #B7A775",
"f  c #C7B57B",
"g  c #B4A477",
"h  c #B2A276",
"j  c #BAAA77",
"k  c #BDAC77",
"l  c #C6B579",
"z  c #C9B87B",
"x  c #D2BD82",
"c  c #D3BE83",
"v  c #C8B67A",
"b  c #C8B77A",
"n  c #D4BF82",
"m  c #D4BE83",
"M  c #BFAD78",
"N  c #CCB97D",
"B  c #C7B67B",
"V  c #D2BE82",
"C  c #C7B67A",
"Z  c #BDAD77",
"A  c #BCAB77",
"S  c #BAAA76",
"D  c #BCAC76",
"F  c #C9B87A",
"G  c #CCBA7D",
"H  c #CFBB82",
"J  c #B4A478",
"K  c #C5B479",
"L  c #C6B57A",
"P  c #D0BB80",
"I  c #D1BC82",
"U  c #D1BC81",
"Y  c #D0BB81",
"T  c #C5B378",
"R  c #C1B076",
"E  c #B6A673",
"W  c #B5A473",
"Q  c #B5A573",
"!  c #B6A573",
"~  c #B7A673",
"^  c #C2B177",
"/  c #C4B378",
"(  c #C3B277",
")  c #CFBA80",
"_  c #CDB880",
"`  c #B0A075",
"'  c #AC9C73",
"]  c #B1A276",
"[  c #B0A175",
"{  c #AB9A6C",
"}  c #AB996A",
"|  c #AC9A6C",
" . c #B2A378",
".. c #B1A277",
"X. c #AA9869",
"o. c #A49164",
"O. c #A28F64",
"+. c #A18E63",
"@. c #A69568",
"#. c #A79668",
"$. c #A18F64",
"%. c #A89768",
"&. c #A39164",
"*. c #A39064",
"=. c #A49165",
"-. c #A59266",
";. c #AA986A",
":. c #A9986A",
">. c #A18E64",
",. c #9F8D63",
"<. c #AC9B6D",
"1. c #AA9A6B",
"2. c #A79669",
"3. c #A8986A",
"4. c #B3A479",
"5. c #B2A377",
"6. c #AA996B",
"7. c #A59367",
"8. c #A49266",
"9. c #A18F63",
"0. c #A29064",
"q. c #AA996A",
"w. c #AB9A6B",
"e. c #A59165",
"r. c #D2BE84",
"t. c #D1C488",
"y. c #CEC186",
"u. c #B9A976",
"i. c #CFC288",
"p. c #D2C68B",
"a. c #D1C589",
"s. c #D1C489",
"d. c #CDC085",
"f. c #B8A875",
"g. c #D2C589",
"h. c #D0C488",
"j. c #D0C387",
"k. c #D1BD82",
"l. c #C1B077",
"z. c #B7A774",
"x. c #B9A875",
"c. c #CDB87F",
"v. c #D1BB81",
"b. c #BFAF79",
"n. c #D6C98B",
"m. c #D4C88B",
"M. c #D0C388",
"N. c #D6C88A",
"B. c #C8B77B",
"V. c #D3BE82",
"C. c #CBB97D",
"Z. c #B1A176",
"A. c #BBAB76",
"S. c #BAA977",
"D. c #C8B67B",
"F. c #BEAD78",
"G. c #CCB97C",
"H. c #C6B679",
"J. c #C4B379",
"K. c #CAB97B",
"L. c #B5A472",
"P. c #C6B57B",
"I. c #C0AF77",
"U. c #AF9F74",
"Y. c #CCB77F",
"T. c #B6A675",
"R. c #A99869",
"E. c #A08D63",
"W. c #A49065",
"Q. c #A9996A",
"!. c #AE9F74",
"~. c #A8976A",
"^. c #A89769",
"/. c #A59366",
"(. c #AC9B6C",
"). c #D0BC82",
"_. c #D0C287",
"`. c #D1C388",
"'. c #C5B57A",
"]. c #CFC286",
"[. c #CEB980",
"{. c #B8A774",
"}. c #D7C98C",
"|. c #D4C789",
" X c #D4C78B",
".X c #D4C689",
"XX c #BCAC78",
"oX c #BBAC78",
"OX c #B9A975",
"+X c #BAAA75",
"@X c #BAA975",
"#X c #C4B479",
"$X c #BBAA77",
"%X c #BCAB76",
"&X c #BBAB77",
"*X c #C3B279",
"=X c #B8A876",
"-X c #A79769",
";X c #D1BD83",
":X c #D8CA8C",
">X c #D4C68A",
",X c #C9B97C",
"<X c #CABA7C",
"1X c #B0A176",
"2X c #C6B479",
"3X c #B2A278",
"4X c #CEBA82",
"5X c #A39165",
"6X c #A99769",
"7X c #AF9F76",
"8X c #A79568",
"9X c #9E8B61",
"0X c #9E8C61",
"qX c #A49366",
"wX c #A59467",
"eX c #9E8C62",
"rX c #9D8A61",
"tX c #A69569",
"yX c #AD9E74",
"uX c #AD9D74",
"iX c #9F8C62",
"pX c white",
/* pixels */
"  . X X . o O + + + + + + + + O o o O + + + + + + + + O @ # $ % ",
"  . & & * = - ; : > , < ; 1 O 2 o o 2 O 1 1 1 1 O O O 3 4 5 6 7 ",
"    8 * & X 9 0 q w e r t y u o     o u y 9 9 i u o o p a s d d ",
". .   8 & X X f g h j k l z x c c c c x v l b z n 8   m M s d d ",
"X N 8   8 8 8 * B f x V X C Z A A A A A S D C F X G 8   p H J 7 ",
"K L P I U I # I f L Y P T R E W Q ! ! Q W ~ ^ / ( / ) Y I _ ` ' ",
"] [ { } } | h  ...` { X.o.O.+.O.@.#.#.@.$.O.%.%.&.*.=.-.;.:.>.,.",
"$ h <.1.2.3...4.4.5.<.6.7.8.9.0.q.w.w.6.7.7.;.;.=.*.*.&.@.#.-.e.",
"# r.t.y.u.u.i.p.> > a.s.t.d.f.f.y.g.a.s.h.j.k.) T ( ( l.z.x.c.v.",
"8 u 2 < b.a g.n.< < 1 1 m.h.e e M.m.1 n.n.N.o 8 G X 9 B.Z a V.8 ",
"X C.u o p V i t r r t t r e Z.Z.j r t 9 9 i 8   8 . . . m V & X ",
"l v x m . * & v A.A.l l A.f.7 7 S.k D.X X & * . . . m c m x v l ",
"S S A F.B.G.* * B.H.b b C J.]  .H p . 8 8 * & X K.B.Z A A A S S ",
"W W L.E ^ K P Y P.K / / ( I.U.` Y.v.Y Y I P K / / ^ f.T.E Q Q W ",
"+.+.+.O.%.R.q.{ [ [ 6.%.&.O.E.E.W.=.=.-.;.q.R.R.R.Q.!.!.~.@.O.+.",
"e.e.-.7.6.w.} { [ [ 6.^./.8.-.-.8.8.8.7.6.w.w.w.w.<.5.5.(.X.0.+.",
"Y )._.h.s.`.k.P L K / '.].h.h.h.h.h.h.t.a.a.a.a.a.a.> g.# [.{.L.",
"  o N.n.O }.o 8 N X X i |.n.m.< < < < m.1 1  X X1 1 < .X4 ).j d ",
"  . i i u o     8 . 8 * i t r XXXXXXoXr t t r r t t r XXA S.Z.7 ",
"o = & & * . . . m c m x v J.OXf.OX+X@XA.l l A.A.K #XOXf.$Xj Z.7 ",
"O 2 u * & X X B.Z A A A S S f.S K C L C b b C K %XS f.&XI I j d ",
"h._.).) K / K *X=XT.E Q Q W W ~ l.( / / K K / ^ z.Q W {.c.c.{.L.",
"8.8.e.-.%.6.` Z.7 !.~.@.$.+.+.+.O.&.%.6.` ` 6.R.2.@.$.+.=.=.+.+.",
"8.8.+.O.R.| 5.4.4.5.(.;.-.=.9.$.8.7.6.<.5...3.-X1.6.-.=.8.8.-.-.",
"t.d.f.{.[.;Xg.> p.g.;XU v.c.{.f.d.t.t.a.> i.u.u.y.t.).)._.h.h.h.",
"n.g.r Z * @ 2 O m..Xp * 8 x &XoXh.m.O O :X>Xr r >X}.u u N.n.n.n.",
"9 ,XC B..   o 4 b.oX&Xk B.D.S f.&Xb.4 o o = B.B.= u C.X 9 <X9 9 ",
"b b l D.x m . x M s S A.K #Xu.d s M m   8 V.B.D.x x v l l l l l ",
"b C D S A F.B.& c x B.K %Xu.1X6 H p   8 G B.D S A A S S S S S S ",
"( l.z.! Q z.R T ) ) 2X^ f.T.7 3X4X# I ) T R z.Q W W W W W W W W ",
"*.5X#.2.2.#.&.*.=.-.6X6.!.7 % 7X .h (.;.=.&.#.8XO.+.+.+.+.+.+.+.",
"9X0XqXwXwXqXeX9XrX0XqXtXyX% % % % uXtX8.0X0XqXqXiX9X9X9X9X9X9X9X"
};
