/* XPM */
static char *player[] = {
/* columns rows colors chars-per-pixel */
"32 32 97 2 ",
"   c #241A06",
".  c #271C0A",
"X  c #2A1D0C",
"o  c #3E1D0B",
"O  c #2F210E",
"+  c #31220F",
"@  c #2F2110",
"#  c #332412",
"$  c #392613",
"%  c #3E2915",
"&  c #411E0B",
"*  c #43210D",
"=  c #4E2613",
"-  c #412A16",
";  c #562C18",
":  c #5D3E25",
">  c #663624",
",  c #643B27",
"<  c #663C28",
"1  c #6C3F2C",
"2  c #6A3F30",
"3  c #644229",
"4  c #6F432D",
"5  c #70452B",
"6  c #784B2E",
"7  c #6C4131",
"8  c #6B4A34",
"9  c #744A35",
"0  c #7C4C36",
"q  c #754939",
"w  c #7C4D38",
"e  c #7B5135",
"r  c #7E543B",
"t  c #74557D",
"y  c #804938",
"u  c #8B4D3B",
"i  c #815437",
"p  c #83533B",
"a  c #8B5B3E",
"s  c #865C46",
"d  c #895F49",
"f  c #935E41",
"g  c #8F6149",
"h  c #966443",
"j  c #9B6643",
"k  c #94644C",
"l  c #97684E",
"z  c #9F6A4A",
"x  c #906851",
"c  c #9F6A55",
"v  c #9C675C",
"b  c #A36B46",
"n  c #A46D4E",
"m  c #A86F4F",
"M  c #A16A56",
"N  c #A77352",
"B  c #AB7354",
"V  c #AC745C",
"C  c #AD795C",
"Z  c #B17B5D",
"A  c #9E7477",
"S  c #AD7762",
"D  c #AA7369",
"F  c #AE7F69",
"G  c #B47B63",
"H  c #B87F67",
"J  c #B07E68",
"K  c #A77A75",
"L  c #A97C79",
"P  c #B88067",
"I  c #B48168",
"U  c #B9846B",
"Y  c #BE8A6E",
"T  c #B78776",
"R  c #B88776",
"E  c #BD8A71",
"W  c #BD8D79",
"Q  c #C18F76",
"!  c #C4937D",
"~  c #4F3C87",
"^  c #5B4283",
"/  c #6F5382",
"(  c #BA9289",
")  c #B2A2BD",
"_  c #C79681",
"`  c #C59983",
"'  c #C79B88",
"]  c #D1AC9A",
"[  c #E0C9BC",
"{  c #B0A6C7",
"}  c #B1A6C8",
"|  c #E3CCC3",
" . c #E5D2C6",
".. c #E9D5CE",
"X. c #F9F3EF",
"o. c white",
"O. c None",
/* pixels */
"O.O.O.O.O.O.O.O.O.O.O.O.O.O.O.O.O.O.O.O.O.O.O.O.O.O.O.O.O.O.O.O.",
"O.O.O.O.O.O.O.O.O.O.O.O.O.O.O.O.O.O.O.O.O.O.O.O.O.O.O.O.O.O.O.O.",
"O.O.O.O.O.O.O.O.O.O.O.O.O.O.O.O.O.O.O.O.O.O.O.O.O.O.O.O.O.O.O.O.",
"O.O.O.O.O.O.O.O.O.O.O.O.O.O.O.O.O.O.O.O.O.O.O.O.O.O.O.O.O.O.O.O.",
"O.O.O.O.O.O.O.O.O.O.O.O.O.O.O.O.O.O.O.O.O.O.O.O.O.O.O.O.O.O.O.O.",
"O.O.O.O.O.O.O.O.O.O.O.O.O.O.O.O.O.O.O.O.O.O.O.O.O.O.O.O.O.O.O.O.",
"O.O.O.O.O.O.O.O.O.O.O.O.O.O.O.O.O.O.O.O.O.O.O.O.O.O.O.O.O.O.O.O.",
"O.O.O.O.O.O.O.# # # # $ % % % % % % % % $ # + O X O.O.O.O.O.O.O.",
"O.O.O.O.O.O.O.# # # # $ % % % % - % % % $ # + X X O.O.O.O.O.O.O.",
"O.O.O.O.O.O.O..   O # # # $ % % % % $ # $ % $ # @ O.O.O.O.O.O.O.",
"O.O.O.O.O.O.O.    O # # # # % % - - # # $ - % # # O.O.O.O.O.O.O.",
"O.O.O.O.O.O.O.. . : r r s g x k x x g s p i 3 $ # O.O.O.O.O.O.O.",
"O.O.O.O.O.O.O.. . 9 b B Z P Y Q E Q P G N b 0 # # O.O.O.O.O.O.O.",
"O.O.O.O.O.O.O.8 8 l B Z P Q Q W E E U P G C l 8 8 O.O.O.O.O.O.O.",
"O.O.O.O.O.O.O.G Z U Y Q Q E _ ! E E Y Y Y Y U G V O.O.O.O.O.O.O.",
"O.O.O.O.O.O.O.G P ` ] ( D K ! ! E Y K A ( ] ' U J O.O.O.O.O.O.O.",
"O.O.O.O.O.O.O.E E  .o.{ ~ / R E E R t ~ } o..._ W O.O.O.O.O.O.O.",
"O.O.O.O.O.O.O.Y Y [ X.) ^ t J J I I t ^ ) X.| ! W O.O.O.O.O.O.O.",
"O.O.O.O.O.O.O.G G W ` T D v q q q q v D T ` W G S O.O.O.O.O.O.O.",
"O.O.O.O.O.O.O.G G P E P G c 2 1 1 7 c G U E U G S O.O.O.O.O.O.O.",
"O.O.O.O.O.O.O.m m Z H f , 1 0 y 0 0 2 1 f J C m n O.O.O.O.O.O.O.",
"O.O.O.O.O.O.O.b j C G s & ; u u u u ; & r S N b j O.O.O.O.O.O.O.",
"O.O.O.O.O.O.O.h f n B 0 & = > > > > = * 0 N z f a O.O.O.O.O.O.O.",
"O.O.O.O.O.O.O.y p f b 6 & & o & * * * * 6 b h i w O.O.O.O.O.O.O.",
"O.O.O.O.O.O.O.w 0 a h 5 o o o o & * * $ 5 h a 0 9 O.O.O.O.O.O.O.",
"O.O.O.O.O.O.O.O.O.O.O.O.O.O.O.O.O.O.O.O.O.O.O.O.O.O.O.O.O.O.O.O.",
"O.O.O.O.O.O.O.O.O.O.O.O.O.O.O.O.O.O.O.O.O.O.O.O.O.O.O.O.O.O.O.O.",
"O.O.O.O.O.O.O.O.O.O.O.O.O.O.O.O.O.O.O.O.O.O.O.O.O.O.O.O.O.O.O.O.",
"O.O.O.O.O.O.O.O.O.O.O.O.O.O.O.O.O.O.O.O.O.O.O.O.O.O.O.O.O.O.O.O.",
"O.O.O.O.O.O.O.O.O.O.O.O.O.O.O.O.O.O.O.O.O.O.O.O.O.O.O.O.O.O.O.O.",
"O.O.O.O.O.O.O.O.O.O.O.O.O.O.O.O.O.O.O.O.O.O.O.O.O.O.O.O.O.O.O.O.",
"O.O.O.O.O.O.O.O.O.O.O.O.O.O.O.O.O.O.O.O.O.O.O.O.O.O.O.O.O.O.O.O."
};
