/* XPM */
static char *wall[] = {
/* columns rows colors chars-per-pixel */
"32 32 103 2 ",
"   c #4F3218",
".  c #4E3218",
"X  c #4A2F17",
"o  c #503318",
"O  c #53371A",
"+  c #53381A",
"@  c #4F3318",
"#  c #4D3017",
"$  c #3C2612",
"%  c #3A2411",
"&  c #4A3017",
"*  c #4E3118",
"=  c #513619",
"-  c #52371A",
";  c #503619",
":  c #523719",
">  c #4B2F17",
",  c #3D2612",
"<  c #492F17",
"1  c #3E2713",
"2  c #3D2712",
"3  c #402A13",
"4  c #422B13",
"5  c #4B3018",
"6  c #4B3017",
"7  c #3F2A13",
"8  c #3E2912",
"9  c #3E2812",
"0  c #482E16",
"q  c #3F2912",
"w  c #412B13",
"e  c #4C3117",
"r  c #4D3117",
"t  c #482F16",
"y  c #482E17",
"u  c #482F17",
"i  c #412A13",
"p  c #4E3117",
"a  c #3A2511",
"s  c #472E16",
"d  c #4C3017",
"f  c #462D16",
"g  c #442C15",
"h  c #3D2812",
"j  c #3B2711",
"k  c #3C2811",
"l  c #452C15",
"z  c #452D16",
"x  c #4A2F16",
"c  c #492E16",
"v  c #382310",
"b  c #3C2512",
"n  c #3B2511",
"m  c #34210F",
"M  c #33200F",
"N  c #35210F",
"B  c #2D1D0D",
"V  c #2C1C0D",
"C  c #2B1C0D",
"Z  c #311F0E",
"A  c #321F0F",
"S  c #2D1C0D",
"D  c #2E1D0E",
"F  c #2B1B0C",
"G  c #352110",
"H  c #321F0E",
"J  c #3B2512",
"K  c #352210",
"L  c #2E1E0E",
"P  c #33210F",
"I  c #2F1E0E",
"U  c #4F3518",
"Y  c #4D3318",
"T  c #4E3418",
"R  c #4F3519",
"E  c #4E3518",
"W  c #4C3318",
"Q  c #452C16",
"!  c #422C14",
"~  c #513719",
"^  c #472D16",
"/  c #442B15",
"(  c #392411",
")  c #3C2812",
"_  c #3C2711",
"`  c #2B1B0D",
"'  c #34200F",
"]  c #32200F",
"[  c #4D3418",
"{  c #503519",
"}  c #402B13",
"|  c #493017",
" . c #462E16",
".. c #3F2A12",
"X. c #492F16",
"o. c #4F3418",
"O. c #4D3118",
"+. c #291A0C",
"@. c #2A1A0C",
"#. c #2F1D0E",
"$. c #301E0E",
"%. c #392311",
"&. c white",
/* pixels */
"  . X X . o O + + + + + + + + O @ @ O + + + + + + + + O o # $ % ",
"  . & & *   = - ; ; ; = - - - - @ @ - - - - - - - O O : . > , % ",
"    . * & X & < 1 2 3 4 < 5   o     o   5 & & 6   o o . 4 7 8 9 ",
". .   . & X X 0 , $ q w 0 < e r r r r e t 0 < X * .   r 4 7 8 9 ",
"X &           * y 0 r r X u w 3 3 3 3 3 7 i y < X 6     p 6 , a ",
"s 0 > 6 6 d d d 0 0 > > f g h j k k k k j h l f z f x > 6 c % v ",
"b n m M M N n $ b n m M B V C V Z Z Z Z V V A A B S B D M M V F ",
"$ n G m H M J , , $ K M L B V V M m m P I L M M B V V B Z Z D B ",
"# r U Y 8 8 T ; ; ; R R E W 8 8 Y R R R E T d > f Q z g h 9 c > ",
".   - = ! ! ; - = = - - ~ U 3 3 E ~ - - - - o   6 X & < w 4 r   ",
"X &   @ r r 6 < w w < < 4 3 n n 3 4 < & & 6 .   . . . . r r & X ",
"0 u e r . * & u 3 3 0 0 3 8 n n q w u X X & * . . . r r r e u 0 ",
"7 3 3 w < 6 . * < y < < u f b $ 6 p .     . & X & < w 3 3 3 3 7 ",
"j j j h l ^ > > 0 s f f z / ( % 0 > > > 6 > ^ f f l 8 h ) k _ j ",
"C C C V A M M m n n m A B V ` ` S B B D M M M M M ' ( ( M Z V C ",
"B B D I P m M m n n m ] L D D D D D D L P m m m m K $ $ G M V C ",
"X 6 T E R T d > 0 s f s [ E E E E E E E R R R R R R ; { d x h j ",
"  o - - O - o   & X X 6 = - ~ = = = = ~ - - = = - - ~ ; . 6 3 9 ",
"  . 6 6   o     . . . . 6 < 4 } } } } 4 < < w 4 | | 4 } 3 q n a ",
"o   & & * . . . r r r e u  ...8 ..7 ..3 0 0 3 3 s s ..8 3 q n a ",
"+ - @ . & X X < w 3 3 3 3 7 8 7 s y 0 y < < u s 3 7 8 3 d d 3 9 ",
"E T 6 x ^ f s f q h ) k _ j j h g z f f s s f l h k j h c c h j ",
"D D B D A m n b n ( M Z V C C C V B A ' n n m M H Z V C B S C C ",
"D B C V ] N $ , , $ G M D B V V B L M K $ b M H m P D B D D D D ",
"E W 8 h X.d R ; ; { d 6 > c h 8 W E R R ; T 8 8 Y o.6 6 T E E E ",
"- ; 4 w r o - O ~ ; . r   r 3 } U ~ O O + ; 4 4 = -     - - - - ",
"& & u < .   o . ! } 3 w < u 7 8 3 ! . o o   < <     & X & & & & ",
"< < y u e r . r 4 3 7 3 s s q 8 7 4 r   . O.< u e e u 0 0 0 0 0 ",
"< u i 7 3 w < & r r < s 3 q n , 6 p     6 < i 7 3 3 3 7 7 7 7 7 ",
"z g h k k h g f X X ^ l 8 h % b x # d > f g h k j j j j j j j j ",
"S B Z H H Z B S B D ] m % a % % b J G M D B Z Z V C C C C C C C ",
"+.@.#.$.$.#.@.+.+.@.#.Z %.% % % % %.Z #.+.@.#.#.@.+.+.+.+.+.+.+."
};
